<svg xmlns="http://www.w3.org/2000/svg" xmlns:xlink="http://www.w3.org/1999/xlink" width="6912" zoomAndPan="magnify" viewBox="0 0 5184 2592.000001" height="3456" preserveAspectRatio="xMidYMid meet" version="1.0"><defs><clipPath id="541930230d"><path d="M 1668.503906 781.496094 L 2704.605469 781.496094 L 2704.605469 1817.597656 L 1668.503906 1817.597656 Z M 1668.503906 781.496094 " clip-rule="nonzero"/></clipPath><clipPath id="43218ec23d"><path d="M 2089.242188 390.75 L 3125.34375 390.75 L 3125.34375 1426.847656 L 2089.242188 1426.847656 Z M 2089.242188 390.75 " clip-rule="nonzero"/></clipPath><clipPath id="c01a485663"><path d="M 2089.242188 1163.851562 L 3125.34375 1163.851562 L 3125.34375 2199.953125 L 2089.242188 2199.953125 Z M 2089.242188 1163.851562 " clip-rule="nonzero"/></clipPath><clipPath id="cccc846327"><path d="M 2479.09375 781.496094 L 3515.195312 781.496094 L 3515.195312 1817.597656 L 2479.09375 1817.597656 Z M 2479.09375 781.496094 " clip-rule="nonzero"/></clipPath></defs><g clip-path="url(#541930230d)"><path fill="#697f9b" d="M 2186.554688 1817.597656 C 1900.347656 1817.597656 1668.503906 1584.15625 1668.503906 1299.546875 C 1668.503906 1014.9375 1900.347656 781.496094 2186.554688 781.496094 C 2472.761719 781.496094 2704.605469 1013.339844 2704.605469 1299.546875 C 2704.605469 1585.753906 2471.164062 1817.597656 2186.554688 1817.597656 Z M 2186.554688 813.476562 C 1917.9375 813.476562 1700.484375 1030.929688 1700.484375 1299.546875 C 1700.484375 1568.164062 1917.9375 1785.617188 2186.554688 1785.617188 C 2455.175781 1785.617188 2672.628906 1568.164062 2672.628906 1299.546875 C 2672.628906 1030.929688 2453.574219 813.476562 2186.554688 813.476562 Z M 2186.554688 813.476562 " fill-opacity="1" fill-rule="nonzero"/></g><g clip-path="url(#43218ec23d)"><path fill="#697f9b" d="M 2607.292969 1426.847656 C 2321.085938 1426.847656 2089.242188 1193.40625 2089.242188 908.796875 C 2089.242188 624.191406 2321.085938 390.75 2607.292969 390.75 C 2893.5 390.75 3125.34375 622.59375 3125.34375 908.796875 C 3125.34375 1195.003906 2891.898438 1426.847656 2607.292969 1426.847656 Z M 2607.292969 422.726562 C 2338.671875 422.726562 2121.21875 640.179688 2121.21875 908.796875 C 2121.21875 1177.417969 2338.671875 1394.871094 2607.292969 1394.871094 C 2875.910156 1394.871094 3093.363281 1177.417969 3093.363281 908.796875 C 3093.363281 640.179688 2874.3125 422.726562 2607.292969 422.726562 Z M 2607.292969 422.726562 " fill-opacity="1" fill-rule="nonzero"/></g><g clip-path="url(#c01a485663)"><path fill="#697f9b" d="M 2607.292969 2199.953125 C 2321.085938 2199.953125 2089.242188 1966.507812 2089.242188 1681.902344 C 2089.242188 1397.292969 2321.085938 1163.851562 2607.292969 1163.851562 C 2893.5 1163.851562 3125.34375 1395.695312 3125.34375 1681.902344 C 3125.34375 1968.109375 2891.898438 2199.953125 2607.292969 2199.953125 Z M 2607.292969 1195.832031 C 2338.671875 1195.832031 2121.21875 1413.285156 2121.21875 1681.902344 C 2121.21875 1950.519531 2338.671875 2167.972656 2607.292969 2167.972656 C 2875.910156 2167.972656 3093.363281 1950.519531 3093.363281 1681.902344 C 3093.363281 1413.285156 2874.3125 1195.832031 2607.292969 1195.832031 Z M 2607.292969 1195.832031 " fill-opacity="1" fill-rule="nonzero"/></g><g clip-path="url(#cccc846327)"><path fill="#697f9b" d="M 2997.144531 1817.597656 C 2710.9375 1817.597656 2479.09375 1584.15625 2479.09375 1299.546875 C 2479.09375 1014.9375 2710.9375 781.496094 2997.144531 781.496094 C 3283.351562 781.496094 3515.195312 1013.339844 3515.195312 1299.546875 C 3515.195312 1585.753906 3281.753906 1817.597656 2997.144531 1817.597656 Z M 2997.144531 813.476562 C 2728.527344 813.476562 2511.074219 1030.929688 2511.074219 1299.546875 C 2511.074219 1568.164062 2728.527344 1785.617188 2997.144531 1785.617188 C 3265.761719 1785.617188 3483.214844 1568.164062 3483.214844 1299.546875 C 3483.214844 1030.929688 3264.164062 813.476562 2997.144531 813.476562 Z M 2997.144531 813.476562 " fill-opacity="1" fill-rule="nonzero"/></g></svg>